# xmcd CD database file
#
# Track frame offsets:
#	150
#	18758
#	46841
#	71311
#	93756
#	112217
#	127676
#	148117
#	164401
#	183384
#	203019
#	220886
#	238486
#	257965
#	275707
#	292787
#
# Disc length: 4222 seconds
#
# Revision: 2
# Processed by: cddbd v1.5.1PL0 Copyright (c) Steve Scherf et al.
# Submitted via: CDex 1.51
#
DISCID=ea107c10
DTITLE=Various Artist - Con Sabor a Salsa
DYEAR=2000
DGENRE=Latin
TTITLE0=Ave María Lola - Sonora Carruseles
TTITLE1=Rebelión - Joe Arroyo y Verdad
TTITLE2=Levántate Negro - Son de Oriente
TTITLE3=Negro Candela - Fruko y Sus Tesos
TTITLE4=Siempre en Mi Mente - Bunkers
TTITLE5=La Calle de la Rumba - Tupamaros
TTITLE6=El Talismán - Latin Brothers
TTITLE7=Vampiro Enamorado - Grupo Raza
TTITLE8=La Rumba de las Calaveras - Son de Oriente
TTITLE9=En Buenaventura - Sonora Carruseles
TTITLE10=En Efectivo - Tupamaros
TTITLE11=A Mi Manera - Bunkers
TTITLE12=Ya Llego - Fruko y Sus Tesos
TTITLE13=Con Tus Mañas - Sabrosura
TTITLE14=Sinvergüenza - Tupamaros
TTITLE15=Historia de Dos Salseros - Alfredo de la Fé
EXTD=YEAR: 2000
EXTT0=
EXTT1=
EXTT2=
EXTT3=
EXTT4=
EXTT5=
EXTT6=
EXTT7=
EXTT8=
EXTT9=
EXTT10=
EXTT11=
EXTT12=
EXTT13=
EXTT14=
EXTT15=
PLAYORDER=
